<svg width="105" height="40" viewBox="0 0 105 40" fill="none" xmlns="http://www.w3.org/2000/svg">
<path d="M5.71655 3.58584C5.99963 1.83908 7.50792 0.555542 9.27746 0.555542H100.761C102.984 0.555542 104.677 2.54603 104.322 4.73999L99.2834 35.83C99.0004 37.5767 97.4921 38.8603 95.7225 38.8603H4.23904C2.01645 38.8603 0.322577 36.8698 0.678129 34.6758L5.71655 3.58584Z" fill="#100F0F"/>
<path d="M51.4339 5.71183C51.493 5.41629 51.7525 5.20355 52.0539 5.20355H55.8226C56.2216 5.20355 56.5209 5.56859 56.4426 5.95984L55.8525 8.9105C55.7934 9.20604 55.5339 9.41878 55.2325 9.41878H51.4638C51.0648 9.41878 50.7655 9.05375 50.8438 8.66249L51.4339 5.71183Z" fill="white"/>
<path d="M21.1446 11.2707C23.6612 11.2707 25.5076 12.0601 26.6837 13.6388L26.9873 12.2772C27.0538 11.9792 27.3182 11.7672 27.6235 11.7672H31.2102C31.6244 11.7672 31.9336 12.1485 31.848 12.5538L28.2156 29.7559C28.152 30.0574 27.8859 30.2731 27.5778 30.2731H24.0396C23.6524 30.2731 23.3634 29.9168 23.4433 29.5379L23.6106 28.7453C22.2701 30.0949 20.6135 30.7697 18.6407 30.7697C16.4276 30.7697 14.5812 29.9548 13.1016 28.3251C11.622 26.6827 10.8822 24.6583 10.8822 22.252C10.8822 20.9279 11.1225 19.6165 11.603 18.3178C12.0836 17.0192 12.7475 15.8478 13.5948 14.8038C14.4547 13.7471 15.5423 12.894 16.8575 12.2447C18.1854 11.5954 19.6144 11.2707 21.1446 11.2707ZM20.1582 26.1098C21.5114 26.1098 22.6685 25.6323 23.6296 24.6774C24.6034 23.7225 25.1788 22.5194 25.3558 21.0679C25.5329 19.5401 25.2294 18.2987 24.4453 17.3438C23.6739 16.3889 22.6116 15.9115 21.2584 15.9115C19.7788 15.9115 18.5332 16.4844 17.5215 17.6303C16.5098 18.7762 16.0039 20.1449 16.0039 21.7363C16.0039 23.0605 16.3896 24.1236 17.161 24.9257C17.9325 25.7151 18.9315 26.1098 20.1582 26.1098Z" fill="white"/>
<path d="M37.1349 29.7551C37.0715 30.057 36.8053 30.2731 36.4969 30.2731H32.8601C32.4459 30.2731 32.1367 29.8918 32.2223 29.4866L35.8547 12.2844C35.9183 11.983 36.1844 11.7672 36.4925 11.7672H39.9302C40.3476 11.7672 40.6575 12.1542 40.5663 12.5616L40.3079 13.7152C41.661 12.0855 43.4062 11.2707 45.5434 11.2707C46.2896 11.2707 47.0122 11.3849 47.7114 11.6134C48.0345 11.719 48.1924 12.0733 48.0851 12.3959L46.9228 15.8926C46.7962 16.2733 46.3586 16.4479 45.978 16.3212C45.3872 16.1244 44.7301 16.0261 44.0069 16.0261C42.8055 16.0261 41.7622 16.4017 40.877 17.1528C40.0044 17.8913 39.41 18.9799 39.0938 20.4186L37.1349 29.7551Z" fill="white"/>
<path d="M51.6926 29.7559C51.629 30.0574 51.3629 30.2731 51.0548 30.2731H47.3984C46.9841 30.2731 46.675 29.8918 46.7606 29.4866L50.393 12.2844C50.4566 11.983 50.7226 11.7672 51.0308 11.7672H54.6872C55.1014 11.7672 55.4106 12.1485 55.325 12.5538L51.6926 29.7559Z" fill="white"/>
<path d="M66.7101 29.9492C66.5934 30.1498 66.3788 30.2731 66.1468 30.2731H61.3511C61.0381 30.2731 60.7694 30.0507 60.7107 29.7433L57.431 12.5412C57.3544 12.1395 57.6624 11.7672 58.0713 11.7672H61.8111C62.1315 11.7672 62.4044 12.0001 62.4548 12.3165L64.5108 25.2122L71.7231 12.1048C71.8377 11.8966 72.0565 11.7672 72.2942 11.7672H76.1623C76.6652 11.7672 76.9787 12.3125 76.7257 12.7471L66.7101 29.9492Z" fill="white"/>
<path d="M91.8033 27.6713C92.0154 27.9422 91.9818 28.3334 91.7113 28.5461C89.8259 30.0285 87.4784 30.7697 84.6688 30.7697C81.9624 30.7697 79.8316 30.0185 78.2761 28.5161C76.7332 27.001 75.9618 25.0467 75.9618 22.6531C75.9618 21.6727 76.0819 20.6796 76.3222 19.6738C76.5751 18.6552 76.9735 17.643 77.5173 16.6372C78.0737 15.6187 78.7503 14.7147 79.547 13.9253C80.3437 13.1359 81.3428 12.4993 82.5442 12.0155C83.7582 11.519 85.0861 11.2707 86.5278 11.2707C88.8547 11.2707 90.739 11.9582 92.1806 13.3333C93.635 14.7083 94.3621 16.5353 94.3621 18.8144C94.3621 20.054 94.1739 21.2038 93.7974 22.2639C93.7089 22.5131 93.4686 22.6721 93.2041 22.6721H80.8749C80.9128 23.9071 81.2985 24.862 82.032 25.5368C82.7655 26.1989 83.7835 26.5299 85.0861 26.5299C86.5606 26.5299 87.9011 26.1202 89.1075 25.3009C89.4085 25.0965 89.8224 25.1411 90.0466 25.4276L91.8033 27.6713ZM86.2432 15.5677C85.0165 15.5677 84.0111 15.9179 83.2271 16.6181C82.443 17.3056 81.8486 18.1905 81.444 19.2727H89.5818C89.5945 19.2345 89.6008 19.1772 89.6008 19.1008V18.929C89.6008 17.834 89.3036 17.0001 88.7092 16.4271C88.1149 15.8542 87.2929 15.5677 86.2432 15.5677Z" fill="white"/>
</svg>
